<svg id="bd0b7d9d-0d58-4ec4-afd7-09119424fdea" data-name="Calque 1" xmlns="http://www.w3.org/2000/svg" xmlns:xlink="http://www.w3.org/1999/xlink" viewBox="0 0 217.9 102.12"><defs><style>.bbff283e-87b2-49e6-a131-05e2c955f1d7{fill:url(#a12866fb-74e5-4941-9801-5804edc7467e);}</style><linearGradient id="a12866fb-74e5-4941-9801-5804edc7467e" x1="7.72" y1="67.33" x2="216.71" y2="25.21" gradientTransform="matrix(1, 0, 0, -1, 0, 103)" gradientUnits="userSpaceOnUse"><stop offset="0" stop-color="#fd867e"/><stop offset="1" stop-color="#fd7eac"/></linearGradient></defs><path class="bbff283e-87b2-49e6-a131-05e2c955f1d7" d="M33.38,33.31A18.33,18.33,0,0,1,20,38.77,18.65,18.65,0,0,1,1.09,19.84,18.23,18.23,0,0,1,6.55,6.43,18.24,18.24,0,0,1,20,.92,18.22,18.22,0,0,1,33.38,6.43a18.12,18.12,0,0,1,5.51,13.41A18.29,18.29,0,0,1,33.38,33.31ZM11.59,28.42A11.48,11.48,0,0,0,20,31.75a11.48,11.48,0,0,0,8.37-3.33,11.63,11.63,0,0,0,3.38-8.58,11.66,11.66,0,0,0-3.38-8.58A11.4,11.4,0,0,0,20,7.88a11.41,11.41,0,0,0-8.38,3.38,11.66,11.66,0,0,0-3.38,8.58A11.63,11.63,0,0,0,11.59,28.42Zm38.74-11.9a7.06,7.06,0,0,1,3.07-3.75,9.62,9.62,0,0,1,4.84-1.25V19a8,8,0,0,0-5.51,1.25q-2.4,1.6-2.4,5.36V38h-6.7V12h6.7ZM81.11,12h6.55V36.8q0,6-4,9.2a14.81,14.81,0,0,1-9.57,3.17,16.45,16.45,0,0,1-7.43-1.61,11.28,11.28,0,0,1-4.89-4.73l5.72-3.28q2,3.64,6.81,3.64a7.11,7.11,0,0,0,5-1.66,6.1,6.1,0,0,0,1.82-4.73V34a9.8,9.8,0,0,1-8.32,3.95,12.37,12.37,0,0,1-9.25-3.85,13.22,13.22,0,0,1-3.7-9.46,13.07,13.07,0,0,1,3.75-9.41,12.24,12.24,0,0,1,9.2-3.9,9.78,9.78,0,0,1,8.32,3.95ZM68.58,29.78a7.36,7.36,0,0,0,5.25,2,7.15,7.15,0,0,0,5.2-2,6.89,6.89,0,0,0,2.08-5.15A6.65,6.65,0,0,0,79,19.58a7,7,0,0,0-5.2-2,7.23,7.23,0,0,0-5.25,2,6.76,6.76,0,0,0-2,5.05A7,7,0,0,0,68.58,29.78ZM113.51,12h6.7V38h-6.7V35A10.21,10.21,0,0,1,105,38.77a11.89,11.89,0,0,1-8.94-4A13.91,13.91,0,0,1,92.39,25a13.72,13.72,0,0,1,3.7-9.72,11.8,11.8,0,0,1,8.94-4,10.21,10.21,0,0,1,8.48,3.79ZM101.13,30.35a7.55,7.55,0,0,0,10.3,0A7.23,7.23,0,0,0,113.51,25a7,7,0,0,0-2.08-5.25,7.42,7.42,0,0,0-10.3,0,7.11,7.11,0,0,0-2,5.25A7.31,7.31,0,0,0,101.13,30.35Zm39.62-19a9.29,9.29,0,0,1,7,2.86c1.88,1.9,2.81,4.54,2.81,7.9V38h-6.71V22.91a5.26,5.26,0,0,0-1.4-3.95,5,5,0,0,0-3.74-1.4,5.48,5.48,0,0,0-4.16,1.61A6.64,6.64,0,0,0,133,24V38H126.3V12H133V15C134.63,12.53,137.22,11.32,140.75,11.32Zm18.89-2.4a4.12,4.12,0,0,1-2.91-7A4,4,0,0,1,159.64.66a3.89,3.89,0,0,1,2.91,1.24,4,4,0,0,1,0,5.83A4,4,0,0,1,159.64,8.92ZM156.31,38V12H163V38Zm18.83-18.61q0,1,1.35,1.71a22.84,22.84,0,0,0,3.38,1.15,28.19,28.19,0,0,1,3.95,1.25A7.25,7.25,0,0,1,187.15,26a6.86,6.86,0,0,1,1.41,4.42,7.2,7.2,0,0,1-3,6.19,12.4,12.4,0,0,1-7.44,2.13q-8,0-10.92-6.19L173,29.31q1.14,3.38,5.09,3.38c2.4,0,3.59-.75,3.59-2.24,0-.69-.46-1.25-1.4-1.66a17.6,17.6,0,0,0-3.33-1.2,35.72,35.72,0,0,1-4-1.3,8.4,8.4,0,0,1-3.38-2.44,6.71,6.71,0,0,1-1.35-4.27,7.21,7.21,0,0,1,2.81-6,11.11,11.11,0,0,1,7.07-2.23,11.61,11.61,0,0,1,5.77,1.45A10.35,10.35,0,0,1,188,16.83L182.32,20a4.27,4.27,0,0,0-4.16-2.65,4,4,0,0,0-2.19.57A1.8,1.8,0,0,0,175.14,19.43Zm23,8.37q1.37,4.89,7.34,4.89a6.87,6.87,0,0,0,5.82-2.6l5.41,3.12q-3.85,5.57-11.34,5.56a14,14,0,0,1-10.35-3.9,13.32,13.32,0,0,1-3.9-9.83A13.38,13.38,0,0,1,195,15.27a13.18,13.18,0,0,1,9.88-3.95,12.28,12.28,0,0,1,9.41,3.95A13.64,13.64,0,0,1,218.05,25a16,16,0,0,1-.26,2.76Zm-.1-5.2h13.26a6.22,6.22,0,0,0-2.39-4,6.65,6.65,0,0,0-4.06-1.3,7,7,0,0,0-4.47,1.4A6.47,6.47,0,0,0,198.08,22.6ZM17.31,82.49H11.44V93.31a2.55,2.55,0,0,0,.67,2,3.19,3.19,0,0,0,2,.73c.87,0,1.94,0,3.22-.05V102q-6.91.78-9.77-1.3T4.73,93.31V82.49H.21V76H4.73V70.79l6.71-2V76h5.87ZM41,76H47.7v26H41V99a10.21,10.21,0,0,1-8.48,3.79,11.92,11.92,0,0,1-8.94-4A13.91,13.91,0,0,1,19.88,89a13.71,13.71,0,0,1,3.69-9.72,11.83,11.83,0,0,1,8.94-4A10.21,10.21,0,0,1,41,79.11ZM28.61,94.35a7,7,0,0,0,5.15,2,7,7,0,0,0,5.15-2A7.19,7.19,0,0,0,41,89a7,7,0,0,0-2.08-5.25,6.87,6.87,0,0,0-5.15-2.08,6.89,6.89,0,0,0-5.15,2.08,7.1,7.1,0,0,0-2,5.25A7.3,7.3,0,0,0,28.61,94.35ZM73,83.43q0,1,1.35,1.71a22.44,22.44,0,0,0,3.38,1.15,28.19,28.19,0,0,1,4,1.25A7.25,7.25,0,0,1,85,90a6.86,6.86,0,0,1,1.41,4.42,7.2,7.2,0,0,1-3,6.19,12.42,12.42,0,0,1-7.44,2.13q-8,0-10.92-6.19l5.83-3.27q1.14,3.38,5.09,3.38c2.4,0,3.59-.75,3.59-2.24,0-.69-.47-1.25-1.4-1.66a17.6,17.6,0,0,0-3.33-1.2,35,35,0,0,1-4-1.3,8.33,8.33,0,0,1-3.38-2.44,6.71,6.71,0,0,1-1.35-4.27,7.22,7.22,0,0,1,2.8-6A11.16,11.16,0,0,1,76,75.32a11.64,11.64,0,0,1,5.77,1.45,10.35,10.35,0,0,1,4.11,4.06L80.15,84A4.28,4.28,0,0,0,76,81.3a4,4,0,0,0-2.19.57A1.8,1.8,0,0,0,73,83.43ZM112.5,98.82A13.73,13.73,0,0,1,89,89a13.8,13.8,0,0,1,23.51-9.72,13.12,13.12,0,0,1,4,9.72A13.3,13.3,0,0,1,112.5,98.82ZM97.68,94.19a7.27,7.27,0,0,0,10.08,0,7.53,7.53,0,0,0,0-10.29,7.27,7.27,0,0,0-10.08,0,7.67,7.67,0,0,0,0,10.29Zm26.87-21.27a4.12,4.12,0,0,1-2.91-7,4,4,0,0,1,2.91-1.24,3.89,3.89,0,0,1,2.91,1.24,4.11,4.11,0,0,1-2.91,7ZM121.22,102V76h6.71v26Zm19.55-21.52a7.06,7.06,0,0,1,3.07-3.75,9.62,9.62,0,0,1,4.84-1.25V83a8,8,0,0,0-5.51,1.25q-2.4,1.6-2.4,5.36V102h-6.7V76h6.7Zm31-15.08L166,72.56h-6.45l4.16-7.12ZM157.3,91.8q1.37,4.89,7.34,4.89a6.87,6.87,0,0,0,5.82-2.6l5.41,3.12q-3.85,5.57-11.34,5.56a14,14,0,0,1-10.35-3.9,14.36,14.36,0,0,1-.05-19.6,13.18,13.18,0,0,1,9.88-4,12.31,12.31,0,0,1,9.42,4A13.67,13.67,0,0,1,177.17,89a16,16,0,0,1-.26,2.76Zm-.1-5.2h13.26a6.22,6.22,0,0,0-2.39-3.95,6.65,6.65,0,0,0-4.06-1.3,7,7,0,0,0-4.47,1.4A6.47,6.47,0,0,0,157.2,86.6Zm30.12,5.2q1.35,4.89,7.33,4.89a6.87,6.87,0,0,0,5.82-2.6l5.41,3.12q-3.84,5.57-11.34,5.56a14,14,0,0,1-10.34-3.9,14.33,14.33,0,0,1,0-19.6,13.14,13.14,0,0,1,9.87-4,12.3,12.3,0,0,1,9.42,4A13.67,13.67,0,0,1,207.18,89a16,16,0,0,1-.26,2.76Zm-.11-5.2h13.26a6.22,6.22,0,0,0-2.39-3.95,6.65,6.65,0,0,0-4.06-1.3,7,7,0,0,0-4.47,1.4A6.47,6.47,0,0,0,187.21,86.6Zm29.59,14.82a4.39,4.39,0,0,1-6.24,0,4.42,4.42,0,0,1,3.12-7.54,4.41,4.41,0,0,1,3.12,7.54Z" transform="translate(-0.21 -0.66)"/></svg>