<svg id="f6e5a48a-c290-4216-a563-883d5679c47e" data-name="Calque 1" xmlns="http://www.w3.org/2000/svg" xmlns:xlink="http://www.w3.org/1999/xlink" viewBox="0 0 53 53.05"><defs><style>.ad7bc75e-ab50-40a0-9d73-9fcdd85c7e23{fill:#fd867e;}.b6048f67-aa17-4a2d-8413-badefef45413{fill:#3a3a3a;}.fbdb1d0f-0512-4f57-9090-da298a42b2d9{fill:url(#aee5cf4c-4c89-4304-817c-aaeb89c4c4d7);}</style><linearGradient id="aee5cf4c-4c89-4304-817c-aaeb89c4c4d7" x1="22.82" y1="38.96" x2="52.72" y2="35.7" gradientTransform="matrix(1, 0, 0, -1, 0, 55)" gradientUnits="userSpaceOnUse"><stop offset="0" stop-color="#fd867e"/><stop offset="1" stop-color="#fd7eac"/></linearGradient></defs><path class="ad7bc75e-ab50-40a0-9d73-9fcdd85c7e23" d="M23.29,37.73,19.41,35.1a1.09,1.09,0,0,0-1.53.29l-2.64,3.88A1.1,1.1,0,0,0,16.16,41a.75.75,0,0,0,.21,0l6.51-1.24a1.11,1.11,0,0,0,.41-2Z" transform="translate(0 -0.96)"/><path class="b6048f67-aa17-4a2d-8413-badefef45413" d="M23.1,5.62a1.13,1.13,0,0,0-.56-.72A15.41,15.41,0,0,0,2.68,10,15.29,15.29,0,0,0,.28,21.54c1.51,7.92,11.26,15.67,17.44,15.67A6.7,6.7,0,0,0,19,37.09a7.5,7.5,0,0,0,2.11-.78,1.07,1.07,0,0,0,.54-.67,1.08,1.08,0,0,0-.1-.86,3.23,3.23,0,0,1-.44-2,3.3,3.3,0,0,1,1.17-2.1,1.12,1.12,0,0,0,.27-1.33,26.2,26.2,0,0,1-2.17-6.51c-1.08-5.65-.46-11.12,1.71-15,.22-.37.46-.73.7-1.08l.15-.22A1.08,1.08,0,0,0,23.1,5.62ZM13.82,10a8.85,8.85,0,0,0-7,10.34,1.1,1.1,0,0,1-.88,1.29l-.21,0a1.11,1.11,0,0,1-1.08-.9A11.06,11.06,0,0,1,13.4,7.79,1.11,1.11,0,1,1,13.82,10Z" transform="translate(0 -0.96)"/><path class="ad7bc75e-ab50-40a0-9d73-9fcdd85c7e23" d="M31.26,36.08,30,31.57a1.09,1.09,0,0,0-.53-.66,1.07,1.07,0,0,0-.84-.1L24.1,32.09a1.11,1.11,0,0,0-.24,2l5.79,3.23a1.17,1.17,0,0,0,.54.14,1.09,1.09,0,0,0,.69-.24A1.11,1.11,0,0,0,31.26,36.08Z" transform="translate(0 -0.96)"/><path class="fbdb1d0f-0512-4f57-9090-da298a42b2d9" d="M45.07,2.92a15.48,15.48,0,0,0-21,6c-1.89,3.4-2.44,8.45-1.47,13.53s3.14,8.92,5.83,10.42a9.19,9.19,0,0,0,4.5,1c6.12,0,14.87-4,18.16-9.86A15.49,15.49,0,0,0,45.07,2.92ZM43.34,8.28a1.1,1.1,0,0,1-1.5.43,8.86,8.86,0,0,0-12,3.41,1.09,1.09,0,0,1-1,.57,1.13,1.13,0,0,1-.53-.14,1.1,1.1,0,0,1-.43-1.5,11.06,11.06,0,0,1,15-4.27A1.1,1.1,0,0,1,43.34,8.28Z" transform="translate(0 -0.96)"/><path class="ad7bc75e-ab50-40a0-9d73-9fcdd85c7e23" d="M27.85,34.14a1.1,1.1,0,0,0-1.34.81L23.17,48.34l-2.25-9a1.1,1.1,0,1,0-2.14.53l3.31,13.27a1.11,1.11,0,0,0,1.08.83,1.1,1.1,0,0,0,1.07-.83l4.42-17.69A1.1,1.1,0,0,0,27.85,34.14Z" transform="translate(0 -0.96)"/></svg>